<?xml version="1.0" encoding="UTF-8"?>
<svg width="35px" height="35px" viewBox="0 0 35 35" version="1.1" xmlns="http://www.w3.org/2000/svg" xmlns:xlink="http://www.w3.org/1999/xlink">
    <!-- Generator: Sketch 45.2 (43514) - http://www.bohemiancoding.com/sketch -->
    <title>Shape</title>
    <desc>Created with Sketch.</desc>
    <defs></defs>
    <g id="Page-1" stroke="none" stroke-width="1" fill="none" fill-rule="evenodd">
        <g id="Desktop" transform="translate(-1207.000000, -18.000000)" fill-rule="nonzero" fill="#0476F7">
            <g id="Group-18" transform="translate(1112.000000, 18.000000)">
                <g id="instagram-logo" transform="translate(95.000000, 0.000000)">
                    <path d="M17.3782,0 C7.7959,0 0,7.7959 0,17.3782 C0,26.9598 7.7959,34.7564 17.3782,34.7564 C26.9598,34.7564 34.7564,26.9598 34.7564,17.3782 C34.7564,7.7959 26.9612,0 17.3782,0 Z M27.2615,15.3503 L27.2615,23.4423 C27.2615,25.55 25.5479,27.2629 23.4416,27.2629 L11.3148,27.2629 C9.2078,27.2629 7.4949,25.55 7.4949,23.4423 L7.4949,15.3503 L7.4949,11.3155 C7.4949,9.2085 9.2078,7.4956 11.3148,7.4956 L23.4409,7.4956 C25.5479,7.4956 27.2615,9.2085 27.2615,11.3155 L27.2615,15.3503 Z" id="Shape"></path>
                </g>
            </g>
        </g>
    </g>
</svg>