<?xml version="1.0" encoding="UTF-8"?>
<svg width="36px" height="35px" viewBox="0 0 36 35" version="1.1" xmlns="http://www.w3.org/2000/svg" xmlns:xlink="http://www.w3.org/1999/xlink">
    <!-- Generator: Sketch 45.2 (43514) - http://www.bohemiancoding.com/sketch -->
    <title>Shape</title>
    <desc>Created with Sketch.</desc>
    <defs></defs>
    <g id="Page-1" stroke="none" stroke-width="1" fill="none" fill-rule="evenodd">
        <g id="Desktop" transform="translate(-1159.000000, -18.000000)" fill-rule="nonzero" fill="#0476F7">
            <g id="Group-18" transform="translate(1112.000000, 18.000000)">
                <g id="twitter-logo-button" transform="translate(47.500000, 0.000000)">
                    <path d="M17.3782,0 C7.7959,0 0,7.7959 0,17.3782 C0,26.9598 7.7959,34.7564 17.3782,34.7564 C26.9598,34.7564 34.7564,26.9598 34.7564,17.3782 C34.7564,7.7959 26.9612,0 17.3782,0 Z M25.1307,13.4008 C25.1384,13.573 25.1426,13.7466 25.1426,13.9202 C25.1426,19.2059 21.1204,25.2987 13.7613,25.2987 C11.5024,25.2987 9.3996,24.6386 7.63,23.5032 C7.9429,23.5403 8.2614,23.5592 8.5841,23.5592 C10.4587,23.5592 12.1828,22.9194 13.552,21.847 C11.802,21.8148 10.3243,20.6584 9.8154,19.0687 C10.059,19.1149 10.3103,19.1408 10.5672,19.1408 C10.9319,19.1408 11.2861,19.0932 11.6214,19.0015 C9.7916,18.6347 8.4133,17.0184 8.4133,15.0794 C8.4133,15.0626 8.4133,15.0451 8.414,15.029 C8.953,15.3279 9.5697,15.5085 10.2249,15.5288 C9.1525,14.8127 8.4462,13.5877 8.4462,12.2003 C8.4462,11.4667 8.6429,10.7793 8.9873,10.1885 C10.9592,12.6091 13.9076,14.2009 17.2312,14.3689 C17.1626,14.0756 17.1283,13.7711 17.1283,13.4568 C17.1283,11.2483 18.9189,9.457 21.1274,9.457 C22.2782,9.457 23.3163,9.9428 24.0471,10.7198 C24.9592,10.5406 25.8132,10.2088 26.5881,9.7489 C26.2871,10.6834 25.655,11.4667 24.8269,11.9623 C25.6368,11.8657 26.4096,11.6515 27.1243,11.333 C26.5909,12.1338 25.9126,12.8387 25.1307,13.4008 Z" id="Shape"></path>
                </g>
            </g>
        </g>
    </g>
</svg>