<?xml version="1.0" encoding="UTF-8"?>
<svg width="42px" height="42px" viewBox="0 0 42 42" version="1.1" xmlns="http://www.w3.org/2000/svg" xmlns:xlink="http://www.w3.org/1999/xlink">
    <!-- Generator: Sketch 45.2 (43514) - http://www.bohemiancoding.com/sketch -->
    <title>Shape</title>
    <desc>Created with Sketch.</desc>
    <defs></defs>
    <g id="Page-1" stroke="none" stroke-width="1" fill="none" fill-rule="evenodd">
        <g id="Desktop" transform="translate(-874.000000, -2997.000000)" fill-rule="nonzero" fill="#FFFFFF">
            <g id="Group-21" transform="translate(760.000000, 2997.000000)">
                <g id="Group-18" transform="translate(57.000000, 0.000000)">
                    <g id="twitter-logo-button" transform="translate(57.000000, 0.000000)">
                        <path d="M20.85384,0 C9.35508,0 0,9.35508 0,20.85384 C0,32.35176 9.35508,41.70768 20.85384,41.70768 C32.35176,41.70768 41.70768,32.35176 41.70768,20.85384 C41.70768,9.35508 32.35344,0 20.85384,0 Z M30.15684,16.08096 C30.16608,16.2876 30.17112,16.49592 30.17112,16.70424 C30.17112,23.04708 25.34448,30.35844 16.51356,30.35844 C13.80288,30.35844 11.27952,29.56632 9.156,28.20384 C9.53148,28.24836 9.91368,28.27104 10.30092,28.27104 C12.55044,28.27104 14.61936,27.50328 16.2624,26.2164 C14.1624,26.17776 12.38916,24.79008 11.77848,22.88244 C12.0708,22.93788 12.37236,22.96896 12.68064,22.96896 C13.11828,22.96896 13.54332,22.91184 13.94568,22.8018 C11.74992,22.36164 10.09596,20.42208 10.09596,18.09528 C10.09596,18.07512 10.09596,18.05412 10.0968,18.0348 C10.7436,18.39348 11.48364,18.6102 12.26988,18.63456 C10.983,17.77524 10.13544,16.30524 10.13544,14.64036 C10.13544,13.76004 10.37148,12.93516 10.78476,12.2262 C13.15104,15.13092 16.68912,17.04108 20.67744,17.24268 C20.59512,16.89072 20.55396,16.52532 20.55396,16.14816 C20.55396,13.49796 22.70268,11.3484 25.35288,11.3484 C26.73384,11.3484 27.97956,11.93136 28.85652,12.86376 C29.95104,12.64872 30.97584,12.25056 31.90572,11.69868 C31.54452,12.82008 30.786,13.76004 29.79228,14.35476 C30.76416,14.23884 31.69152,13.9818 32.54916,13.5996 C31.90908,14.56056 31.09512,15.40644 30.15684,16.08096 Z" id="Shape"></path>
                    </g>
                </g>
            </g>
        </g>
    </g>
</svg>