<?xml version="1.0" encoding="UTF-8"?>
<svg width="42px" height="42px" viewBox="0 0 42 42" version="1.1" xmlns="http://www.w3.org/2000/svg" xmlns:xlink="http://www.w3.org/1999/xlink">
    <!-- Generator: Sketch 45.2 (43514) - http://www.bohemiancoding.com/sketch -->
    <title>instagram-logo</title>
    <desc>Created with Sketch.</desc>
    <defs></defs>
    <g id="Page-1" stroke="none" stroke-width="1" fill="none" fill-rule="evenodd">
        <g id="Desktop" transform="translate(-931.000000, -2997.000000)" fill-rule="nonzero" fill="#FFFFFF">
            <g id="Group-21" transform="translate(760.000000, 2997.000000)">
                <g id="Group-18" transform="translate(57.000000, 0.000000)">
                    <g id="instagram-logo" transform="translate(114.000000, 0.000000)">
                        <path d="M20.853,25.02864 C23.15376,25.02864 25.02948,23.15628 25.02948,20.85384 C25.02948,19.94496 24.73212,19.1058 24.23988,18.42036 C23.48136,17.36868 22.24824,16.67904 20.85552,16.67904 C19.46196,16.67904 18.22968,17.36784 17.46948,18.41952 C16.97556,19.10496 16.68072,19.94412 16.67988,20.853 C16.67736,23.15544 18.5514,25.02864 20.853,25.02864 Z" id="Shape"></path>
                        <polygon id="Shape" points="29.96952 15.74664 29.96952 12.2472 29.96952 11.7264 29.4462 11.72808 25.94844 11.739 25.96188 15.76008"></polygon>
                        <path d="M20.85384,0 C9.35508,0 0,9.35508 0,20.85384 C0,32.35176 9.35508,41.70768 20.85384,41.70768 C32.35176,41.70768 41.70768,32.35176 41.70768,20.85384 C41.70768,9.35508 32.35344,0 20.85384,0 Z M32.7138,18.42036 L32.7138,28.13076 C32.7138,30.66 30.65748,32.71548 28.12992,32.71548 L13.57776,32.71548 C11.04936,32.71548 8.99388,30.66 8.99388,28.13076 L8.99388,18.42036 L8.99388,13.5786 C8.99388,11.0502 11.04936,8.99472 13.57776,8.99472 L28.12908,8.99472 C30.65748,8.99472 32.7138,11.0502 32.7138,13.5786 L32.7138,18.42036 Z" id="Shape"></path>
                        <path d="M27.34116,20.85384 C27.34116,24.42972 24.4314,27.34116 20.85384,27.34116 C17.27628,27.34116 14.36736,24.42972 14.36736,20.85384 C14.36736,19.99368 14.53872,19.17132 14.84448,18.42036 L11.30388,18.42036 L11.30388,28.13076 C11.30388,29.38572 12.3228,30.40212 13.57692,30.40212 L28.12824,30.40212 C29.38068,30.40212 30.40128,29.38572 30.40128,28.13076 L30.40128,18.42036 L26.859,18.42036 C27.16728,19.17132 27.34116,19.99368 27.34116,20.85384 Z" id="Shape"></path>
                    </g>
                </g>
            </g>
        </g>
    </g>
</svg>