<?xml version="1.0" encoding="UTF-8"?>
<svg width="196px" height="196px" viewBox="0 0 196 196" version="1.1" xmlns="http://www.w3.org/2000/svg" xmlns:xlink="http://www.w3.org/1999/xlink">
    <!-- Generator: Sketch 45.2 (43514) - http://www.bohemiancoding.com/sketch -->
    <title>Group 20</title>
    <desc>Created with Sketch.</desc>
    <defs>
        <rect id="path-1" x="21" y="0" width="102" height="64" rx="4"></rect>
    </defs>
    <g id="Page-1" stroke="none" stroke-width="1" fill="none" fill-rule="evenodd">
        <g id="Desktop" transform="translate(-326.000000, -1482.000000)">
            <g id="Group-20" transform="translate(326.000000, 1482.000000)">
                <rect id="Rectangle-3-Copy-2" fill="#212D86" x="0" y="0" width="196" height="196" rx="10"></rect>
                <rect id="Rectangle-3-Copy-3" fill="#212D86" x="0" y="0" width="196" height="196" rx="10"></rect>
                <g id="Group-16" transform="translate(28.000000, 67.000000)">
                    <g id="Rectangle-12">
                        <use fill="#FFFFFF" fill-rule="evenodd" xlink:href="#path-1"></use>
                        <rect stroke="#FFFFFF" stroke-width="3" x="22.5" y="1.5" width="99" height="61" rx="4"></rect>
                    </g>
                    <rect id="Rectangle-13" fill="#3C98FF" x="26" y="5" width="92" height="54" rx="5"></rect>
                    <path d="M68.1200613,5 L113,5 C115.761424,5 118,7.23857625 118,10 L118,54 C118,56.7614237 115.761424,59 113,59 L37.134777,59 L68.1200613,5 Z" id="Rectangle-13-Copy" fill="#0476F7"></path>
                    <polygon id="Path-4" fill="#FFFFFF" points="75.8539965 18 66 33.8254841 73.4392521 33.8254841 68.9402577 47 79 31.1732362 71.4341385 31.1752345"></polygon>
                    <polygon id="Rectangle-14" fill="#FFFFFF" points="22.2063676 63 121.472059 63 139.951545 79 0.998690672 79"></polygon>
                    <rect id="Rectangle-15" fill="#86BFFF" x="1" y="79" width="139" height="3"></rect>
                    <polygon id="Rectangle-16" fill="#212D86" points="26 63 118 63 126.418815 69.9308343 16.6059127 69.9308343"></polygon>
                </g>
                <g id="Group-17" transform="translate(74.000000, 32.000000)" stroke="#3C98FF" stroke-linecap="round">
                    <path d="M0.5,16.5 L5.5,26.5" id="Line-2"></path>
                    <path d="M11.5,0.5 L14.5,26.5" id="Line-2-Copy"></path>
                    <path d="M34.5,0.5 L32.5,26.5" id="Line-2-Copy-2"></path>
                    <path d="M23.5,14.5 L23.5,26.5" id="Line-2-Copy-3"></path>
                    <path d="M47.5,14.5 L41.5,26.5" id="Line-2-Copy-4"></path>
                </g>
            </g>
        </g>
    </g>
</svg>