<?xml version="1.0" encoding="UTF-8"?>
<svg width="64px" height="56px" viewBox="0 0 64 56" version="1.1" xmlns="http://www.w3.org/2000/svg" xmlns:xlink="http://www.w3.org/1999/xlink">
    <!-- Generator: Sketch 46.1 (44463) - http://www.bohemiancoding.com/sketch -->
    <title>noun_1119564_cc</title>
    <desc>Created with Sketch.</desc>
    <defs></defs>
    <g id="Page-1" stroke="none" stroke-width="1" fill="none" fill-rule="evenodd">
        <g id="Contact-Us-Copy" transform="translate(-608.000000, -460.000000)" fill-rule="nonzero" fill="#FFFFFF">
            <g id="noun_1119564_cc" transform="translate(608.000000, 459.000000)">
                <path d="M23.5,31.1 L28.9,55.4 C29.1,56.2 29.7,56.8 30.5,56.9 C30.6,56.9 30.7,56.9 30.8,56.9 C31.5,56.9 32.2,56.5 32.5,55.9 L63,4 C63.4,3.3 63.4,2.4 62.9,1.8 C62.4,1.2 61.6,0.9 60.8,1 L2.3,15.2 C1.5,15.4 0.9,16.1 0.8,16.9 C0.7,17.7 1.1,18.5 1.8,18.9 L23.5,31.1 Z M31.7,49.6 L27.5,30.6 L54.6,10.5 L31.7,49.6 Z M52.2,7.3 L25.1,27.4 L8.1,17.9 L52.2,7.3 Z" id="Shape"></path>
            </g>
        </g>
    </g>
</svg>